<mxfile host="app.diagrams.net" agent="Mozilla/5.0 (Windows NT 10.0; Win64; x64) AppleWebKit/537.36 (KHTML, like Gecko) Chrome/130.0.0.0 Safari/537.36" version="24.8.3">
  <diagram name="Page-1" id="2Kyqn74115ondL_UN4s-">
    <mxGraphModel dx="1050" dy="557" grid="1" gridSize="10" guides="1" tooltips="1" connect="1" arrows="1" fold="1" page="1" pageScale="1" pageWidth="850" pageHeight="1100" background="none" math="0" shadow="0">
      <root>
        <mxCell id="0" />
        <mxCell id="1" parent="0" />
        <mxCell id="YABvjfio757qkMCUvNJA-13" style="edgeStyle=orthogonalEdgeStyle;rounded=0;orthogonalLoop=1;jettySize=auto;html=1;flowAnimation=1;labelBackgroundColor=none;strokeColor=#0B4D6A;fontColor=default;" edge="1" parent="1" source="YABvjfio757qkMCUvNJA-5">
          <mxGeometry relative="1" as="geometry">
            <mxPoint x="300" y="160" as="targetPoint" />
          </mxGeometry>
        </mxCell>
        <mxCell id="YABvjfio757qkMCUvNJA-19" style="edgeStyle=orthogonalEdgeStyle;rounded=0;orthogonalLoop=1;jettySize=auto;html=1;flowAnimation=1;labelBackgroundColor=none;strokeColor=#0B4D6A;fontColor=default;" edge="1" parent="1">
          <mxGeometry relative="1" as="geometry">
            <mxPoint x="640" y="159" as="targetPoint" />
            <mxPoint x="530" y="159" as="sourcePoint" />
          </mxGeometry>
        </mxCell>
        <mxCell id="YABvjfio757qkMCUvNJA-5" value="node" style="rounded=0;whiteSpace=wrap;html=1;fillColor=#09555B;strokeColor=#BAC8D3;labelBackgroundColor=none;fontColor=#EEEEEE;" vertex="1" parent="1">
          <mxGeometry x="390" y="130" width="120" height="60" as="geometry" />
        </mxCell>
        <mxCell id="YABvjfio757qkMCUvNJA-12" style="edgeStyle=orthogonalEdgeStyle;rounded=0;orthogonalLoop=1;jettySize=auto;html=1;flowAnimation=1;labelBackgroundColor=none;strokeColor=#0B4D6A;fontColor=default;" edge="1" parent="1" source="YABvjfio757qkMCUvNJA-6">
          <mxGeometry relative="1" as="geometry">
            <mxPoint x="300" y="250" as="targetPoint" />
          </mxGeometry>
        </mxCell>
        <mxCell id="YABvjfio757qkMCUvNJA-6" value="node" style="rounded=0;whiteSpace=wrap;html=1;fillColor=#09555B;strokeColor=#BAC8D3;labelBackgroundColor=none;fontColor=#EEEEEE;" vertex="1" parent="1">
          <mxGeometry x="390" y="220" width="120" height="60" as="geometry" />
        </mxCell>
        <mxCell id="YABvjfio757qkMCUvNJA-11" style="edgeStyle=orthogonalEdgeStyle;rounded=0;orthogonalLoop=1;jettySize=auto;html=1;flowAnimation=1;labelBackgroundColor=none;strokeColor=#0B4D6A;fontColor=default;" edge="1" parent="1" source="YABvjfio757qkMCUvNJA-7">
          <mxGeometry relative="1" as="geometry">
            <mxPoint x="300" y="250" as="targetPoint" />
            <Array as="points">
              <mxPoint x="301" y="350" />
            </Array>
          </mxGeometry>
        </mxCell>
        <mxCell id="YABvjfio757qkMCUvNJA-7" value="node" style="rounded=0;whiteSpace=wrap;html=1;fillColor=#09555B;strokeColor=#BAC8D3;labelBackgroundColor=none;fontColor=#EEEEEE;" vertex="1" parent="1">
          <mxGeometry x="390" y="320" width="120" height="60" as="geometry" />
        </mxCell>
        <mxCell id="YABvjfio757qkMCUvNJA-9" style="edgeStyle=orthogonalEdgeStyle;rounded=0;orthogonalLoop=1;jettySize=auto;html=1;flowAnimation=1;labelBackgroundColor=none;strokeColor=#0B4D6A;fontColor=default;" edge="1" parent="1" source="YABvjfio757qkMCUvNJA-8">
          <mxGeometry relative="1" as="geometry">
            <mxPoint x="300" y="160" as="targetPoint" />
            <Array as="points">
              <mxPoint x="301" y="250" />
            </Array>
          </mxGeometry>
        </mxCell>
        <mxCell id="YABvjfio757qkMCUvNJA-8" value="msql master" style="rounded=0;whiteSpace=wrap;html=1;fillColor=#09555B;strokeColor=#BAC8D3;shadow=0;labelBackgroundColor=none;fontColor=#EEEEEE;" vertex="1" parent="1">
          <mxGeometry x="90" y="220" width="120" height="60" as="geometry" />
        </mxCell>
        <mxCell id="YABvjfio757qkMCUvNJA-14" value="bd" style="shape=cylinder3;whiteSpace=wrap;html=1;boundedLbl=1;backgroundOutline=1;size=15;fillColor=#09555B;strokeColor=#BAC8D3;labelBackgroundColor=none;fontColor=#EEEEEE;" vertex="1" parent="1">
          <mxGeometry x="630" y="110" width="60" height="80" as="geometry" />
        </mxCell>
        <mxCell id="YABvjfio757qkMCUvNJA-15" value="bd" style="shape=cylinder3;whiteSpace=wrap;html=1;boundedLbl=1;backgroundOutline=1;size=15;fillColor=#09555B;strokeColor=#BAC8D3;labelBackgroundColor=none;fontColor=#EEEEEE;" vertex="1" parent="1">
          <mxGeometry x="630" y="210" width="60" height="80" as="geometry" />
        </mxCell>
        <mxCell id="YABvjfio757qkMCUvNJA-16" value="bd" style="shape=cylinder3;whiteSpace=wrap;html=1;boundedLbl=1;backgroundOutline=1;size=15;fillColor=#09555B;strokeColor=#BAC8D3;labelBackgroundColor=none;fontColor=#EEEEEE;" vertex="1" parent="1">
          <mxGeometry x="630" y="310" width="60" height="80" as="geometry" />
        </mxCell>
        <mxCell id="YABvjfio757qkMCUvNJA-20" style="edgeStyle=orthogonalEdgeStyle;rounded=0;orthogonalLoop=1;jettySize=auto;html=1;entryX=0;entryY=0.5;entryDx=0;entryDy=0;entryPerimeter=0;flowAnimation=1;labelBackgroundColor=none;strokeColor=#0B4D6A;fontColor=default;" edge="1" parent="1">
          <mxGeometry relative="1" as="geometry">
            <mxPoint x="530" y="249.5" as="sourcePoint" />
            <mxPoint x="650" y="249.5" as="targetPoint" />
          </mxGeometry>
        </mxCell>
        <mxCell id="YABvjfio757qkMCUvNJA-21" style="edgeStyle=orthogonalEdgeStyle;rounded=0;orthogonalLoop=1;jettySize=auto;html=1;flowAnimation=1;labelBackgroundColor=none;strokeColor=#0B4D6A;fontColor=default;" edge="1" parent="1">
          <mxGeometry relative="1" as="geometry">
            <mxPoint x="530" y="349.5" as="sourcePoint" />
            <mxPoint x="640" y="349.5" as="targetPoint" />
            <Array as="points">
              <mxPoint x="585" y="349.5" />
              <mxPoint x="585" y="350.5" />
            </Array>
          </mxGeometry>
        </mxCell>
        <mxCell id="YABvjfio757qkMCUvNJA-22" value="" style="endArrow=none;dashed=1;html=1;rounded=0;flowAnimation=1;labelBackgroundColor=none;strokeColor=#0B4D6A;fontColor=default;" edge="1" parent="1">
          <mxGeometry width="50" height="50" relative="1" as="geometry">
            <mxPoint x="550" y="350" as="sourcePoint" />
            <mxPoint x="550" y="160" as="targetPoint" />
          </mxGeometry>
        </mxCell>
        <mxCell id="YABvjfio757qkMCUvNJA-23" value="crud" style="ellipse;whiteSpace=wrap;html=1;labelBackgroundColor=none;fillColor=#09555B;strokeColor=#BAC8D3;fontColor=#EEEEEE;" vertex="1" parent="1">
          <mxGeometry x="210" y="160" width="60" height="20" as="geometry" />
        </mxCell>
      </root>
    </mxGraphModel>
  </diagram>
</mxfile>
